<?xml version="1.0" encoding="UTF-8" standalone="no"?>
<svg
   xmlns:dc="http://purl.org/dc/elements/1.1/"
   xmlns:cc="http://creativecommons.org/ns#"
   xmlns:rdf="http://www.w3.org/1999/02/22-rdf-syntax-ns#"
   xmlns:svg="http://www.w3.org/2000/svg"
   xmlns="http://www.w3.org/2000/svg"
   xmlns:xlink="http://www.w3.org/1999/xlink"
   xmlns:sodipodi="http://sodipodi.sourceforge.net/DTD/sodipodi-0.dtd"
   xmlns:inkscape="http://www.inkscape.org/namespaces/inkscape"
   inkscape:version="1.0 (4035a4fb49, 2020-05-01)"
   sodipodi:docname="lani_systems-logoPath.svg"
   id="svg218"
   version="1.1"
   stroke="null"
   height="258"
   width="258"
   inkscape:export-filename="C:\Users\phcho\OneDrive\Documentos\sites\LaniSystems\public\lani_systems2.png"
   inkscape:export-xdpi="96"
   inkscape:export-ydpi="96">
  <metadata
     id="metadata222">
    <rdf:RDF>
      <cc:Work
         rdf:about="">
        <dc:format>image/svg+xml</dc:format>
        <dc:type
           rdf:resource="http://purl.org/dc/dcmitype/StillImage" />
        <dc:title></dc:title>
      </cc:Work>
    </rdf:RDF>
  </metadata>
  <sodipodi:namedview
     inkscape:current-layer="Layer_1"
     inkscape:window-maximized="1"
     inkscape:window-y="-8"
     inkscape:window-x="-8"
     inkscape:cy="152.29976"
     inkscape:cx="118.34393"
     inkscape:zoom="2.3570226"
     showgrid="false"
     id="namedview220"
     inkscape:window-height="1027"
     inkscape:window-width="1920"
     inkscape:pageshadow="2"
     inkscape:pageopacity="0"
     guidetolerance="10"
     gridtolerance="10"
     objecttolerance="10"
     borderopacity="1"
     bordercolor="#666666"
     pagecolor="#ffffff"
     inkscape:document-rotation="0" />
  <g
     id="Layer_1">
    <title
       id="title199">Layer 1</title>
    <path
       fill="url(#svg_23)"
       stroke="url(#svg_3)"
       stroke-width="6"
       opacity="undefined"
       d="m3,3l252.41359,0l0,252.41359l-252.41359,0l0,-252.41359z"
       id="svg_10" />
    <g
       style="font-weight:bold;font-size:104px;font-family:Exo;text-anchor:start;fill:url(#linearGradient224);stroke:#000000;stroke-width:0"
       id="svg_1"
       aria-label="LANI">
      <path
         id="path61"
         style="font-weight:bold;font-size:104px;font-family:Exo;text-anchor:start;fill:url(#linearGradient224);stroke:#000000;stroke-width:0"
         d="m 39.87412,169.48434 q -5.928,0 -10.088,-1.768 -4.056,-1.872 -6.136,-5.824 -1.976,-4.056 -1.976,-10.608 V 92.524344 h 15.392 v 56.263996 q 0,2.496 0.832,4.056 0.936,1.56 2.496,2.184 1.56,0.52 3.536,0.52 h 24.336 v 13.936 z" />
      <path
         id="path63"
         style="font-weight:bold;font-size:104px;font-family:Exo;text-anchor:start;fill:url(#linearGradient224);stroke:#000000;stroke-width:0"
         d="m 72.44237,169.48434 24.128,-76.959996 h 19.448 l 24.128,76.959996 h -16.016 l -4.888,-16.12 h -26.208 l -4.784,16.12 z m 24.232,-29.952 h 18.928 l -9.464,-33.8 z" />
      <path
         id="path65"
         style="font-weight:bold;font-size:104px;font-family:Exo;text-anchor:start;fill:url(#linearGradient224);stroke:#000000;stroke-width:0"
         d="M 149.14724,169.48434 V 92.524344 h 12.376 l 32.24,50.751996 V 92.524344 h 15.392 v 76.959996 h -12.376 l -32.136,-50.752 v 50.752 z" />
      <path
         id="path67"
         style="font-weight:bold;font-size:104px;font-family:Exo;text-anchor:start;fill:url(#linearGradient224);stroke:#000000;stroke-width:0"
         d="M 221.75224,169.48434 V 92.524344 h 15.392 v 76.959996 z" />
    </g>
    <g
       style="font-style:normal;font-size:36.415px;font-family:Exo;text-anchor:start;fill:#a8a8a8;stroke:#000000;stroke-width:0"
       id="svg_2"
       transform="scale(0.98418901,1.016065)"
       aria-label="S Y S T E M S">
      <path
         id="path46"
         style="font-style:normal;font-size:36.415px;font-family:Exo;text-anchor:start;fill:#a8a8a8;stroke:#000000;stroke-width:0"
         d="m 31.949837,211.96269 q -0.80113,0 -1.929995,-0.0728 -1.09245,-0.0364 -2.25773,-0.14566 -1.16528,-0.0728 -2.221315,-0.18207 -1.01962,-0.10925 -1.711505,-0.25491 v -2.22131 q 0.910375,0.0728 2.221315,0.14566 1.31094,0.0728 2.803955,0.10924 1.52943,0.0364 2.98603,0.0364 1.638675,0 2.949615,-0.32774 1.31094,-0.32773 2.075655,-1.20169 0.80113,-0.87396 0.80113,-2.51264 v -1.82075 q 0,-1.85716 -0.94679,-2.80395 -0.94679,-0.98321 -3.05886,-0.98321 h -2.876785 q -3.313765,0 -5.207345,-1.4566 -1.857165,-1.4566 -1.857165,-5.02527 v -1.52943 q 0,-3.78716 2.03924,-5.38942 2.03924,-1.60226 5.75357,-1.60226 1.16528,0 2.62188,0.14566 1.4566,0.10925 2.803955,0.29132 1.38377,0.14566 2.294145,0.32774 v 2.22131 q -1.60226,-0.14566 -3.6415,-0.2549 -2.002825,-0.10925 -3.78716,-0.10925 -1.638675,0 -2.84037,0.40057 -1.201695,0.36415 -1.857165,1.34735 -0.619055,0.94679 -0.619055,2.73113 v 1.23811 q 0,2.22131 1.16528,3.05886 1.16528,0.83754 3.240935,0.83754 h 3.095275 q 2.221315,0 3.6415,0.80113 1.420185,0.80113 2.11207,2.22132 0.691885,1.38377 0.691885,3.20452 v 2.07565 q 0,2.69471 -1.16528,4.15131 -1.128865,1.4566 -3.05886,2.00283 -1.89358,0.54622 -4.260555,0.54622 z" />
      <path
         id="path48"
         style="font-style:normal;font-size:36.415px;font-family:Exo;text-anchor:start;fill:#a8a8a8;stroke:#000000;stroke-width:0"
         d="m 62.198183,211.7442 v -8.88526 l -8.52111,-17.91618 h 3.022445 l 6.99168,15.00298 6.99168,-15.00298 h 2.9132 l -8.484695,17.91618 v 8.88526 z" />
      <path
         id="path50"
         style="font-style:normal;font-size:36.415px;font-family:Exo;text-anchor:start;fill:#a8a8a8;stroke:#000000;stroke-width:0"
         d="m 95.107102,211.96269 q -0.80113,0 -1.929995,-0.0728 -1.09245,-0.0364 -2.25773,-0.14566 -1.16528,-0.0728 -2.221315,-0.18207 -1.019621,-0.10925 -1.711506,-0.25491 v -2.22131 q 0.910376,0.0728 2.221316,0.14566 1.31094,0.0728 2.803955,0.10924 1.52943,0.0364 2.98603,0.0364 1.638675,0 2.949615,-0.32774 1.31094,-0.32773 2.075658,-1.20169 0.80113,-0.87396 0.80113,-2.51264 v -1.82075 q 0,-1.85716 -0.946793,-2.80395 -0.94679,-0.98321 -3.05886,-0.98321 h -2.876785 q -3.313765,0 -5.207345,-1.4566 -1.857166,-1.4566 -1.857166,-5.02527 v -1.52943 q 0,-3.78716 2.039241,-5.38942 2.03924,-1.60226 5.75357,-1.60226 1.16528,0 2.62188,0.14566 1.4566,0.10925 2.803958,0.29132 1.38377,0.14566 2.29414,0.32774 v 2.22131 q -1.60226,-0.14566 -3.641498,-0.2549 -2.002825,-0.10925 -3.78716,-0.10925 -1.638675,0 -2.84037,0.40057 -1.201695,0.36415 -1.857165,1.34735 -0.619055,0.94679 -0.619055,2.73113 v 1.23811 q 0,2.22131 1.16528,3.05886 1.16528,0.83754 3.240935,0.83754 h 3.095275 q 2.221315,0 3.641498,0.80113 1.42019,0.80113 2.11207,2.22132 0.69189,1.38377 0.69189,3.20452 v 2.07565 q 0,2.69471 -1.16528,4.15131 -1.12887,1.4566 -3.058863,2.00283 -1.89358,0.54622 -4.260555,0.54622 z" />
      <path
         id="path52"
         style="font-style:normal;font-size:36.415px;font-family:Exo;text-anchor:start;fill:#a8a8a8;stroke:#000000;stroke-width:0"
         d="m 124.40866,211.7442 v -24.17956 h -8.26621 v -2.62188 h 19.44561 v 2.62188 h -8.2662 v 24.17956 z" />
      <path
         id="path54"
         style="font-style:normal;font-size:36.415px;font-family:Exo;text-anchor:start;fill:#a8a8a8;stroke:#000000;stroke-width:0"
         d="m 154.48517,211.88986 q -0.87396,0 -1.85716,-0.14566 -0.98321,-0.18207 -1.85717,-0.69188 -0.87396,-0.50981 -1.42018,-1.52943 -0.54623,-1.05604 -0.54623,-2.84037 v -16.35034 q 0,-1.56584 0.43698,-2.58546 0.4734,-1.05604 1.23811,-1.63868 0.76472,-0.61905 1.71151,-0.87396 0.94679,-0.29132 1.89358,-0.29132 2.25773,0.0364 4.18772,0.10925 1.93,0.0364 3.6415,0.10924 1.74792,0.0364 3.3866,0.10925 v 2.33056 h -10.48752 q -1.42019,0 -2.25773,0.76471 -0.83755,0.76472 -0.83755,2.43981 v 6.33621 l 11.98054,0.18207 v 2.22132 l -11.98054,0.18207 v 6.2998 q 0,1.34735 0.43698,2.03924 0.4734,0.69188 1.23811,0.91037 0.76472,0.21849 1.56585,0.21849 h 10.34186 v 2.33056 q -1.67509,0.10925 -3.53226,0.18208 -1.82075,0.0728 -3.67791,0.10924 -1.82075,0.0364 -3.60509,0.0728 z" />
      <path
         id="path56"
         style="font-style:normal;font-size:36.415px;font-family:Exo;text-anchor:start;fill:#a8a8a8;stroke:#000000;stroke-width:0"
         d="m 179.29916,211.7442 3.05886,-26.80144 h 2.94961 l 7.13734,23.15994 6.99168,-23.15994 h 2.98603 l 3.13169,26.80144 h -2.80395 l -2.69471,-23.48767 0.47339,0.0728 -6.77319,23.41484 h -2.65829 l -6.95527,-23.37843 0.54623,-0.0728 -2.58547,23.45126 z" />
      <path
         id="path58"
         style="font-style:normal;font-size:36.415px;font-family:Exo;text-anchor:start;fill:#a8a8a8;stroke:#000000;stroke-width:0"
         d="m 227.89384,211.96269 q -0.80113,0 -1.93,-0.0728 -1.09245,-0.0364 -2.25773,-0.14566 -1.16528,-0.0728 -2.22131,-0.18207 -1.01962,-0.10925 -1.71151,-0.25491 v -2.22131 q 0.91038,0.0728 2.22132,0.14566 1.31094,0.0728 2.80395,0.10924 1.52943,0.0364 2.98603,0.0364 1.63868,0 2.94962,-0.32774 1.31094,-0.32773 2.07565,-1.20169 0.80113,-0.87396 0.80113,-2.51264 v -1.82075 q 0,-1.85716 -0.94679,-2.80395 -0.94679,-0.98321 -3.05886,-0.98321 h -2.87678 q -3.31377,0 -5.20735,-1.4566 -1.85716,-1.4566 -1.85716,-5.02527 v -1.52943 q 0,-3.78716 2.03924,-5.38942 2.03924,-1.60226 5.75357,-1.60226 1.16528,0 2.62188,0.14566 1.4566,0.10925 2.80395,0.29132 1.38377,0.14566 2.29415,0.32774 v 2.22131 q -1.60226,-0.14566 -3.6415,-0.2549 -2.00283,-0.10925 -3.78716,-0.10925 -1.63868,0 -2.84037,0.40057 -1.2017,0.36415 -1.85717,1.34735 -0.61905,0.94679 -0.61905,2.73113 v 1.23811 q 0,2.22131 1.16528,3.05886 1.16528,0.83754 3.24093,0.83754 h 3.09528 q 2.22131,0 3.6415,0.80113 1.42018,0.80113 2.11207,2.22132 0.69188,1.38377 0.69188,3.20452 v 2.07565 q 0,2.69471 -1.16528,4.15131 -1.12886,1.4566 -3.05886,2.00283 -1.89358,0.54622 -4.26055,0.54622 z" />
    </g>
    <path
       style="fill:url(#linearGradient226)"
       fill="url(#svg_3)"
       stroke-width="0"
       d="m 130.15546,26.797803 -27.00682,0.0048 -0.001,27.005568 9.82206,9.2e-5 -0.001,-17.185891 17.1841,-5.52e-4 0.003,-9.824039 v 0 z m 19.75976,19.759759 -9.81976,0.0047 -5.2e-4,17.18413 -17.18308,-5.3e-4 -0.003,9.818482 27.00861,-4.95e-4 z"
       id="svg_8"
       stroke="#000000" />
  </g>
  <defs
     id="defs216">
    <linearGradient
       id="svg_3"
       x1="0"
       y1="0"
       x2="1"
       y2="0">
      <stop
         id="stop206"
         stop-color="#2780c2"
         stop-opacity="0.99609"
         offset="0" />
      <stop
         id="stop208"
         stop-color="#03baa4"
         stop-opacity="0.99609"
         offset="1" />
    </linearGradient>
    <linearGradient
       id="svg_23"
       x1="0.64063"
       y1="0"
       x2="0.50391"
       y2="0.84845">
      <stop
         id="stop211"
         stop-color="#333333"
         stop-opacity="0.99219"
         offset="0" />
      <stop
         id="stop213"
         stop-color="#333333"
         stop-opacity="0.99219"
         offset="1" />
    </linearGradient>
    <linearGradient
       gradientUnits="userSpaceOnUse"
       gradientTransform="matrix(1.6732506,0,0,0.59763909,-2.7,1.8)"
       y2="151.80459"
       x2="143.3403"
       y1="151.80459"
       x1="14.566927"
       id="linearGradient224"
       xlink:href="#svg_3"
       inkscape:collect="always" />
    <linearGradient
       gradientUnits="userSpaceOnUse"
       gradientTransform="matrix(0.93044186,0.93044186,-0.53737907,0.53737907,69.363477,-75.409624)"
       y2="38.534662"
       x2="123.34303"
       y1="38.534662"
       x1="73.08216"
       id="linearGradient226"
       xlink:href="#svg_3"
       inkscape:collect="always" />
  </defs>
</svg>
