<svg id="Layer_1" data-name="Layer 1" xmlns="http://www.w3.org/2000/svg" viewBox="0 0 365.25 324.62"><defs><style>.cls-1{fill:#010101;}</style></defs><title>logoDara</title><path class="cls-1" d="M288.66,126.27a54.72,54.72,0,0,0-8.33,3.41c-7.23,8.28-11.41,11.35-16.84,1-2.87-5.48-8-5.91-13.18-3.73-1.82.77-4.64,3-5.18,2.45-7.16-7.48-12.83-1.88-18.59,3.2-.43-2.12-.68-3.18-.85-4.25-.55-3.38.46-8.21-4.33-8.33-4.09-.1-4,3.79-4,7.2-.1,6.58-4.75,3.43-7.37,3.64-4.55.37-3.32-3.45-2.56-6a176,176,0,0,0,7-39.62C216.84,44.66,195.57,13.52,163,9.52c-5.22-3.25-15.28-5.06-26.11-2l-.94-.06c-.54.16-1.08.3-1.62.45-1.06.15-1.59.3-1.69.46-13.92,3.72-28,6.83-40.89,14.24C85.23,26.32,78.76,30,73.31,35.4c-1.47,1.45-4.64,3.18-2.22,6.86C77,47,76,38,79.56,38.22q3.73-2.94,7.58-5.55a111.25,111.25,0,0,1,59-19.57c30.35-1.21,53.08,17.64,58.34,48.87,3.64,21.62.52,42.83-6.09,63.49-1.6,5-4.84,6.36-9,7-17,2.77-33.93,5.66-51.65,8.63,0-6.32,0-12.1,0-17.89.06-27.37,1.4-54.78-1.76-82.06-.4-3.49,0-8.51-4.5-8.22-4.65.31-3.56,5.19-3.23,8.69,2.89,30.95,1,62.05,2.46,93,.33,6.76-2.14,8.19-7.69,9.44C98.74,149.57,74.36,155.05,52,167.36c-10.49,5.76-21.95,12.72-21.14,27.5.85,15.45,13,22.1,24.7,26.77,22,8.77,44.29,7,66.33-.39,37-12.35,61.3-40.45,78-77.46,3.27-7.26,7.92-7.39,13.68-7.41,6.37,0,3.87,5.37,4.57,8.67.63,2.93,1,6.05,4.1,6.76s4.89-1.56,6.53-4c2.27-3.41,3.05-8,6.69-10.44,4.64,8.25,7.5,8.75,12.9,1.57,3.87-5.14,6.13-8.75,11.27-.59,6.33,10,15.06,11.65,24.71.14a20.16,20.16,0,0,0,4.5-11C288.87,126.79,288.87,126.27,288.66,126.27Zm-183.15,94c-13.22,2.47-26.38,2.24-39.27-2.24a54.09,54.09,0,0,1-11.79-5.51c-16.88-11-17.25-25.34-.55-36.81C76.83,160,103.12,155.39,129,149.38c6-1.4,4.4,3.27,4.89,6.47.27,1.76.35,4,2.3,4.3,2.57.38,3.79-2.37,3.54-4.18-1.38-10.09,4.74-9.86,10.92-10.75,14.63-2.12,29.06-6.06,45.8-6.76C176.34,181.71,149.22,212.11,105.51,220.28Z" transform="translate(-25 -5.94)"/><text x="-25" y="-5.94"></text><path d="M45.53,272.74c7.87,0,11.92,3.57,11.92,10.55s-4.05,10.5-11.92,10.5H33.83a.17.17,0,0,0-.16.17V307.6H30.78V272.91a.17.17,0,0,1,.17-.17Zm-.11,18.43c6,0,9.09-2.63,9.09-7.88s-3-7.92-9.09-7.92H33.83a.16.16,0,0,0-.16.17V291a.17.17,0,0,0,.16.17Z" transform="translate(-25 -5.94)"/><path d="M83.94,284.66a.19.19,0,0,1,.07.14v2.85h-.16c-1.68-1.73-4.36-2.62-7.93-2.62-3.72,0-6.45,2.1-6.45,5,0,2.47,1.57,3.58,6.66,3.84,6.78.37,9.19,2.36,9.19,6.93s-3.62,7.35-9.29,7.35c-4,0-7.18-.93-9.29-2.73a.2.2,0,0,1-.06-.14v-3h.16c1.94,2.25,5.09,3.46,9.14,3.46s6.77-1.94,6.77-4.93c0-2.79-1.68-3.94-7.09-4.26-6.56-.36-8.82-2.3-8.82-6.45,0-4.41,3.68-7.46,9-7.46C79.19,282.61,82.19,283.38,83.94,284.66Z" transform="translate(-25 -5.94)"/><path d="M99.28,275.37a1.94,1.94,0,0,1-3.88,0,1.94,1.94,0,1,1,3.88,0ZM96,283.14H98.7V307.6H96Z" transform="translate(-25 -5.94)"/><path d="M131,285.39a.24.24,0,0,1,.05.14v3h-.15a9.89,9.89,0,0,0-8-3.46c-6.35,0-10.56,4.3-10.56,10.34s4.21,10.34,10.56,10.34a9.89,9.89,0,0,0,8-3.46h.15v3a.24.24,0,0,1-.05.14,12,12,0,0,1-8.24,2.73c-7.93,0-13.13-5.36-13.13-12.76s5.2-12.76,13.13-12.76C126.18,282.61,129.1,283.54,131,285.39Z" transform="translate(-25 -5.94)"/><path d="M166.74,295.37c0,6.63-4.18,11.51-10.37,12.55-8.77,1.48-16.74-6.36-15.19-15.11,1.08-6.08,6-10.2,12.64-10.2C161.38,282.61,166.74,287.91,166.74,295.37Zm-23.05,0c0,6.09,4.25,10.34,10.13,10.34S164,301.46,164,295.37,159.76,285,153.82,285,143.69,289.28,143.69,295.37ZM158,271.23a.16.16,0,0,1,.13-.06h3L154.71,279a.16.16,0,0,1-.13.06H152Z" transform="translate(-25 -5.94)"/><path d="M177.76,270.85h2.68V307.6h-2.68Z" transform="translate(-25 -5.94)"/><path d="M217.24,295.37c0,6.64-4.19,11.51-10.38,12.55-8.76,1.47-16.73-6.36-15.18-15.11,1.08-6.08,6-10.2,12.64-10.2C211.88,282.61,217.24,287.91,217.24,295.37Zm-23.05,0c0,6.09,4.25,10.34,10.13,10.34s10.19-4.25,10.19-10.34S210.26,285,204.32,285,194.19,289.28,194.19,295.37Z" transform="translate(-25 -5.94)"/><path d="M252.2,305.66c0,7.87-4.73,12.44-12.92,12.44-4.43,0-8.13-1.34-10.39-3.62a.15.15,0,0,1,0-.13v-2.86H229c2.16,2.67,5.73,4.2,10.08,4.2,6.67,0,10.45-3.63,10.45-10.14v-2.73h-.1c-1.95,3.21-5.57,5.2-10.29,5.2-7.3,0-12.55-5.25-12.55-12.7s5.25-12.71,12.55-12.71c4.88,0,8.61,2.1,10.55,5.57h.1l.06-5h2.36Zm-2.52-10.34c0-6.09-4.25-10.29-10.24-10.29s-10.13,4.2-10.13,10.29,4.25,10.29,10.13,10.29A9.86,9.86,0,0,0,249.68,295.32Z" transform="translate(-25 -5.94)"/><path d="M286.48,307.6l-.06-5h-.1c-1.94,3.47-5.67,5.57-10.55,5.57-7.3,0-12.55-5.31-12.55-12.76s5.25-12.76,12.55-12.76c4.88,0,8.61,2.1,10.55,5.57h.1l.06-5h2.36V307.6Zm-.16-12.23c0-6.09-4.25-10.34-10.24-10.34S266,289.28,266,295.37s4.25,10.34,10.13,10.34S286.32,301.46,286.32,295.37Z" transform="translate(-25 -5.94)"/></svg>