<?xml version="1.0" encoding="UTF-8" standalone="no"?>
<svg
   xmlns:osb="http://www.openswatchbook.org/uri/2009/osb"
   xmlns:dc="http://purl.org/dc/elements/1.1/"
   xmlns:cc="http://creativecommons.org/ns#"
   xmlns:rdf="http://www.w3.org/1999/02/22-rdf-syntax-ns#"
   xmlns:svg="http://www.w3.org/2000/svg"
   xmlns="http://www.w3.org/2000/svg"
   xmlns:sodipodi="http://sodipodi.sourceforge.net/DTD/sodipodi-0.dtd"
   xmlns:inkscape="http://www.inkscape.org/namespaces/inkscape"
   width="130.61137mm"
   height="138.04951mm"
   viewBox="0 0 130.61137 138.04951"
   version="1.1"
   id="svg8"
   sodipodi:docname="logoDara.svg"
   inkscape:version="1.0 (4035a4fb49, 2020-05-01)">
  <defs
     id="defs2">
    <rect
       x="23.283333"
       y="195.79167"
       width="179.91667"
       height="44.714584"
       id="rect3330" />
    <linearGradient
       id="linearGradient3300"
       osb:paint="solid">
      <stop
         style="stop-color:#000000;stop-opacity:1;"
         offset="0"
         id="stop3298" />
    </linearGradient>
    <linearGradient
       id="linearGradient3061"
       osb:paint="solid">
      <stop
         style="stop-color:#000000;stop-opacity:1;"
         offset="0"
         id="stop3059" />
    </linearGradient>
    <linearGradient
       id="linearGradient859"
       osb:paint="solid">
      <stop
         style="stop-color:#000000;stop-opacity:1;"
         offset="0"
         id="stop857" />
    </linearGradient>
    <rect
       x="36.615925"
       y="40.624969"
       width="123.21125"
       height="101.29515"
       id="rect841" />
    <rect
       x="3.7797618"
       y="9.0714283"
       width="232.83333"
       height="159.50595"
       id="rect835" />
  </defs>
  <sodipodi:namedview
     fit-margin-bottom="0"
     fit-margin-right="0"
     fit-margin-left="0"
     fit-margin-top="0"
     id="base"
     pagecolor="#ffffff"
     bordercolor="#666666"
     borderopacity="1.0"
     inkscape:pageopacity="0.0"
     inkscape:pageshadow="2"
     inkscape:zoom="1"
     inkscape:cx="166.48098"
     inkscape:cy="298.30915"
     inkscape:document-units="mm"
     inkscape:current-layer="layer1"
     inkscape:document-rotation="0"
     showgrid="false"
     inkscape:window-width="1920"
     inkscape:window-height="1027"
     inkscape:window-x="-8"
     inkscape:window-y="-8"
     inkscape:window-maximized="1" />
  <metadata
     id="metadata5">
    <rdf:RDF>
      <cc:Work
         rdf:about="">
        <dc:format>image/svg+xml</dc:format>
        <dc:type
           rdf:resource="http://purl.org/dc/dcmitype/StillImage" />
        <dc:title></dc:title>
      </cc:Work>
    </rdf:RDF>
  </metadata>
  <g
     transform="translate(-29.910189,-86.632735)"
     inkscape:label="Layer 1"
     inkscape:groupmode="layer"
     id="layer1">
    <g
       style="font-size:10.5833px;line-height:1.25;font-family:Amsterdam;-inkscape-font-specification:Amsterdam;white-space:pre;shape-inside:url(#rect841)"
       id="text839" />
    <g
       aria-label="Dm"
       id="text847"
       style="font-size:16.9333px;line-height:1.25;font-family:Amsterdam;-inkscape-font-specification:Amsterdam;opacity:1;fill:#000000;fill-opacity:1;stroke:#000000;stroke-width:0.572523;stroke-linejoin:round;stroke-miterlimit:4;stroke-dasharray:none;stroke-opacity:1;paint-order:stroke fill markers"
       transform="matrix(2.9221536,0,0,2.9221536,-184.24889,-36.084171)">
      <path
         d="m 106.44569,62.094495 v 0 q -0.0331,0.07441 -0.091,0.14056 -0.0496,0.05788 -0.12402,0.07441 -0.25631,0.04134 -0.51263,0.04134 -0.0496,0 -0.12402,0 -0.60358,0 -1.2237,0.01654 -0.23151,0 -0.45475,0.01654 -0.57878,-0.01654 -0.79375,0.545702 -0.7276,1.587497 -1.66191,3.059239 -1.2733,2.033981 -2.869074,3.778574 -1.5875,1.752861 -3.547062,3.150189 -2.381246,1.653642 -5.374339,2.629291 -2.993093,0.975649 -6.118477,1.050063 -3.133653,0.08268 -5.895236,-0.983917 -0.818553,-0.314192 -1.554424,-0.768944 -0.744139,-0.454751 -1.355987,-1.091404 -0.529166,-0.529165 -0.859894,-1.182354 -0.562239,-1.182355 0,-2.348173 0.545702,-1.091404 1.604033,-1.901689 1.050063,-0.802016 2.364709,-1.405596 1.306378,-0.603579 2.645828,-1.025258 1.339451,-0.429947 2.447391,-0.735871 0.107487,-0.04134 0.198437,-0.07441 3.819915,-1.074868 7.730779,-1.744593 -0.01654,-1.207159 -0.01654,-2.422586 -0.07441,-4.911319 -0.165364,-9.839174 -0.01654,-2.000907 -0.272851,-3.985278 -0.07441,-0.653189 0.289387,-0.851626 0.256315,-0.148828 0.487825,-0.08268 0.239778,0.05788 0.372069,0.330728 0.157096,0.388606 0.214974,0.818553 0.148827,1.025259 0.198437,2.058785 0.107487,2.000908 0.165364,4.001815 0.05788,2.000908 0,4.018352 0,1.819006 -0.07441,3.621477 -0.03307,1.058331 -0.04961,2.124931 0.562238,-0.09095 1.124477,-0.181901 0.620116,-0.09095 1.744593,-0.248046 1.835541,-0.256315 3.869521,-0.562239 2.042254,-0.314192 2.993094,-0.529166 0.50437,-0.115755 0.66973,-0.661457 0.52917,-1.455205 0.87643,-2.943483 0.59531,-2.530074 0.5209,-5.126292 -0.0331,-1.314646 -0.32246,-2.554878 -0.28939,-1.2485 -0.92604,-2.414318 -2.11666,-3.786842 -6.366534,-4.58059 -1.678443,-0.297656 -3.323817,-0.190169 -1.645374,0.09922 -3.265944,0.496093 -3.001361,0.711066 -5.688531,2.199344 -0.587043,0.314192 -1.141013,0.677994 -0.55397,0.363801 -1.041795,0.818553 -0.388606,0.396874 -0.934308,0.380338 -0.23151,-0.01654 -0.363801,-0.198438 -0.04961,-0.115755 -0.03307,-0.214973 0.01654,-0.09922 0.07441,-0.190169 0.198437,-0.272851 0.454752,-0.496093 0.256314,-0.23151 0.545702,-0.429947 1.546155,-1.10794 3.290748,-1.85208 4.291203,-1.951298 9.004084,-2.042248 1.909957,-0.03307 3.762033,0.421679 3.042714,0.777212 5.051884,3.001361 2.00918,2.215881 2.49701,5.308193 0.34726,2.381245 0.0744,4.696345 -0.27285,2.306831 -1.01699,4.564053 -0.0579,0.181901 -0.091,0.330729 -0.27286,0.686261 -0.1571,0.843357 0.12402,0.157096 0.8847,0.115755 0.12403,0 0.27285,0 0.091,0 0.1819,0 0.27286,-0.01654 0.53744,0.01654 0.26458,0.0248 0.5209,0.165364 0.091,0.05788 0.13229,0.148828 0.0496,0.09095 0.008,0.198437 z m -4.92786,0.942576 v 0 q 0.16536,-0.41341 -0.27285,-0.380338 -0.0744,0 -0.14883,0.01654 -1.09141,0.115755 -2.158004,0.272851 -0.36381,0.05788 -0.72761,0.115755 -3.117113,0.454752 -6.209425,0.975649 0,0.272851 0,0.570507 0,0.396874 -0.0248,0.760675 -0.02481,0.363802 -0.165365,0.578775 -0.132291,0.223242 -0.421679,0.223242 -0.438215,-0.05788 -0.479556,-0.677994 -0.01654,-0.289387 0,-0.595311 0,-0.148828 -0.01654,-0.289387 V 64.24423 q -2.108395,0.380338 -4.200252,0.868163 -0.148828,0.04134 -0.289388,0.07441 -1.240232,0.272851 -2.852533,0.711066 -1.62057,0.438215 -3.249408,1.041795 -1.628838,0.611847 -2.951752,1.438669 -1.331182,0.826821 -2.009176,1.918225 -0.578775,1.058331 -0.03307,2.108394 0.454752,0.802017 1.182355,1.347719 1.091404,0.859894 2.397782,1.273305 1.876884,0.636652 3.968742,0.677993 2.091858,0.04961 4.134106,-0.380337 2.050517,-0.421679 3.828183,-1.223696 2.662364,-1.215427 4.770759,-3.084043 2.108397,-1.860348 3.762037,-4.249862 1.256774,-1.761129 2.166274,-3.728964 z"
         style="letter-spacing:0px;word-spacing:0px;mix-blend-mode:normal;fill:#000000;fill-opacity:1;stroke:#000000;stroke-width:0.572523;stroke-linecap:butt;stroke-linejoin:round;stroke-miterlimit:4;stroke-dasharray:none;stroke-dashoffset:0;stroke-opacity:1;paint-order:stroke fill markers"
         id="path863" />
      <path
         id="path865"
         style="letter-spacing:0px;word-spacing:0px;fill:#000000;fill-opacity:1;stroke:#000000;stroke-width:0.572523;stroke-linecap:butt;stroke-linejoin:round;stroke-miterlimit:4;stroke-dasharray:none;stroke-opacity:1;paint-order:stroke fill markers"
         d="m 106.46094,59.783011 c -0.0264,6.89e-4 -0.0536,0.0022 -0.0815,0.0046 -0.41338,0.03307 -0.61457,0.267317 -0.60357,0.702777 0.0111,0.330727 0.0303,0.66434 0.0578,1.000581 0,0.198437 0.005,0.388596 0.0164,0.570497 0.0111,0.214973 0.0222,0.427175 0.0333,0.636637 0.0165,0.457507 0.0358,0.917776 0.0578,1.380796 0.0717,0.534675 0.38585,0.777141 0.94258,0.727534 0.30317,-0.02756 0.54021,-0.162613 0.71109,-0.405149 0.0992,-0.154338 0.19019,-0.311436 0.27287,-0.471288 0.0882,-0.143315 0.17356,-0.289391 0.25625,-0.438219 0.0827,-0.121267 0.15437,-0.2425 0.21504,-0.363767 0.15984,-0.314191 0.31957,-0.562258 0.47942,-0.744157 0.16539,-0.181901 0.26196,-0.05507 0.28949,0.38039 0,0.08819 0.011,0.173566 0.0331,0.256246 0.11025,0.341755 0.34169,0.523693 0.69447,0.54574 0.47404,0.03858 0.83792,-0.129533 1.09148,-0.504358 0.26458,-0.424436 0.57877,-0.807554 0.94257,-1.149307 0.12127,-0.121267 0.22605,-0.181796 0.31425,-0.181796 0.0937,0 0.19011,0.06613 0.28932,0.198419 0.20395,0.270094 0.39131,0.542826 0.56219,0.818432 0.0111,0.01102 0.0222,0.02484 0.0332,0.04138 0.14884,0.242534 0.32237,0.449314 0.52081,0.62019 0.19844,0.165367 0.43268,0.27278 0.70277,0.322387 0.55673,0.09922 1.07771,0.08277 1.56277,-0.04952 0.48507,-0.137804 0.92872,-0.418933 1.3311,-0.843368 0.0441,-0.04961 0.10761,-0.126757 0.19029,-0.231489 0.0882,-0.110242 0.16535,-0.223254 0.23149,-0.339009 0.0662,-0.115754 0.0882,-0.204101 0.0661,-0.264735 0,-0.121265 -0.0331,-0.201036 -0.0992,-0.239623 -0.0662,-0.0441 -0.15432,-0.06072 -0.26456,-0.04969 h -1.8e-4 c -0.12127,0 -0.25352,0.04968 -0.39684,0.148902 -0.1378,0.09371 -0.28947,0.212141 -0.45484,0.355456 -0.20946,0.181901 -0.42708,0.347219 -0.65308,0.496047 -0.22049,0.143336 -0.44371,0.212263 -0.66971,0.20673 -0.226,-0.0055 -0.441,-0.140566 -0.64495,-0.405149 -0.0496,-0.07717 -0.0911,-0.151518 -0.12414,-0.223176 -0.0496,-0.08268 -0.0991,-0.159831 -0.14873,-0.231489 -0.0221,-0.02756 -0.0413,-0.05241 -0.0578,-0.07445 -0.19293,-0.270095 -0.39149,-0.51816 -0.59544,-0.744158 -0.452,-0.46302 -0.99763,-0.628338 -1.63704,-0.496046 -0.27009,0.04961 -0.51816,0.140578 -0.74416,0.272869 -0.22048,0.132291 -0.39683,0.247926 -0.52911,0.347144 -0.13233,0.09922 -0.2289,0.07998 -0.2895,-0.05783 -0.1819,-0.374824 -0.48507,-0.578806 -0.9095,-0.611879 -0.48508,-0.04961 -0.90948,0.08264 -1.27328,0.396837 -0.1378,0.143316 -0.26725,0.300413 -0.38852,0.471289 -0.0441,0.06063 -0.091,0.12134 -0.14059,0.181972 v 0.01662 c -0.0496,0.06063 -0.0993,0.107341 -0.14891,0.140414 -0.0496,0.02756 -0.1019,0.01654 -0.15703,-0.03307 -0.0496,-0.05512 -0.0744,-0.20382 -0.0744,-0.446354 -0.0276,-0.363801 -0.0661,-0.727678 -0.11566,-1.091479 -0.0672,-0.377239 -0.29909,-0.560674 -0.6957,-0.550337 z" />
    </g>
    <g
       style="font-size:25.4px;line-height:1.35;font-family:Amsterdam;-inkscape-font-specification:Amsterdam;letter-spacing:0px;word-spacing:0px;white-space:pre;shape-inside:url(#rect3330)"
       id="text3328"
       transform="matrix(0.95919551,0,0,1,6.8037861,3.96875)"
       aria-label="P s i c รณ l o g a">
      <path
         id="path910"
         style="font-style:normal;font-variant:normal;font-weight:normal;font-stretch:normal;font-size:21.1667px;font-family:'Droid Serif';-inkscape-font-specification:'Droid Serif'"
         d="m 24.089357,215.62853 v -0.88883 h 0.268718 q 0.361735,0 0.671794,-0.0517 0.320395,-0.0517 0.558107,-0.20671 0.237712,-0.16536 0.372071,-0.46509 0.134359,-0.29972 0.134359,-0.79581 v -10.37665 q 0,-0.46509 -0.144695,-0.74414 -0.134359,-0.28939 -0.372071,-0.44442 -0.237712,-0.15503 -0.558106,-0.19637 -0.310059,-0.0517 -0.661459,-0.0517 h -0.268718 v -0.88883 h 5.942799 q 1.333254,0 2.315108,0.31006 0.981854,0.29972 1.622642,0.8785 0.640789,0.56844 0.950848,1.38493 0.320395,0.81649 0.320395,1.85002 0,0.94051 -0.299724,1.80868 -0.289389,0.86816 -0.961183,1.53996 -0.671795,0.66146 -1.757002,1.06453 -1.085207,0.39274 -2.656173,0.39274 h -1.333254 v 3.57602 q 0,0.46509 0.134359,0.75448 0.144694,0.27905 0.382406,0.42374 0.237712,0.1447 0.547771,0.19637 0.320395,0.0413 0.671795,0.0413 h 0.702801 v 0.88883 z m 4.144456,-6.88331 h 1.126548 q 0.961183,0 1.643313,-0.19637 0.68213,-0.20671 1.116213,-0.65113 0.434083,-0.45475 0.630454,-1.15755 0.206706,-0.71314 0.206706,-1.71566 0,-0.88884 -0.1757,-1.53996 -0.175701,-0.66146 -0.568442,-1.09554 -0.392742,-0.43408 -1.023195,-0.64079 -0.620118,-0.21704 -1.51929,-0.21704 h -1.436607 z" />
      <path
         id="path912"
         style="font-style:normal;font-variant:normal;font-weight:normal;font-stretch:normal;font-size:21.1667px;font-family:'Droid Serif';-inkscape-font-specification:'Droid Serif'"
         d="m 46.000199,215.83524 q -0.795818,0 -1.446942,-0.1447 -0.640789,-0.13436 -1.095542,-0.41341 -0.454754,-0.28939 -0.702801,-0.7028 -0.248047,-0.42375 -0.248047,-0.98185 0,-0.42375 0.134359,-0.7028 0.144694,-0.28939 0.341065,-0.45476 0.206706,-0.16536 0.434082,-0.22737 0.237712,-0.0724 0.423748,-0.0724 0,0.55811 0.113688,1.04386 0.113688,0.48576 0.382406,0.85783 0.268718,0.36174 0.702801,0.57878 0.444418,0.20671 1.085207,0.20671 0.568441,0 1.002524,-0.13436 0.434083,-0.1447 0.723471,-0.39274 0.299724,-0.25839 0.454754,-0.60979 0.155029,-0.36173 0.155029,-0.78548 0,-0.39274 -0.124023,-0.67179 -0.113689,-0.28939 -0.413413,-0.53744 -0.289388,-0.24805 -0.795818,-0.50643 -0.50643,-0.25838 -1.271242,-0.58911 -0.816489,-0.36174 -1.426272,-0.69247 -0.599448,-0.34106 -0.992189,-0.7338 -0.392742,-0.39274 -0.589112,-0.88884 -0.196371,-0.50643 -0.196371,-1.19889 0,-0.72348 0.279053,-1.28158 0.289389,-0.55811 0.816489,-0.93018 0.5271,-0.38241 1.260907,-0.57878 0.733807,-0.19637 1.632978,-0.19637 0.754477,0 1.333254,0.15503 0.578777,0.15503 0.971518,0.42375 0.392742,0.25838 0.589113,0.62012 0.19637,0.3514 0.19637,0.74414 0,0.57878 -0.403076,0.93018 -0.392742,0.34106 -1.126548,0.34106 0,-1.06453 -0.444418,-1.65365 -0.434083,-0.58911 -1.374596,-0.58911 -0.537435,0 -0.919842,0.12403 -0.382406,0.12402 -0.630453,0.3514 -0.237712,0.22737 -0.3514,0.53743 -0.113689,0.31006 -0.113689,0.68213 0,0.40308 0.144694,0.7028 0.144695,0.28939 0.454754,0.53744 0.320394,0.24805 0.816489,0.48576 0.50643,0.22737 1.20923,0.51676 0.83716,0.3514 1.436607,0.69247 0.599448,0.34106 0.981854,0.74414 0.392742,0.40308 0.578777,0.90951 0.186035,0.50643 0.186035,1.16789 0,0.82682 -0.299723,1.44694 -0.299724,0.62012 -0.847495,1.04386 -0.547771,0.41342 -1.322919,0.62012 -0.764812,0.20671 -1.705325,0.20671 z" />
      <path
         id="path914"
         style="font-style:normal;font-variant:normal;font-weight:normal;font-stretch:normal;font-size:21.1667px;font-family:'Droid Serif';-inkscape-font-specification:'Droid Serif'"
         d="m 57.36903,214.7397 q 0.3514,0 0.661459,-0.0413 0.320395,-0.0517 0.558107,-0.19637 0.237712,-0.14469 0.372071,-0.42374 0.144694,-0.28939 0.144694,-0.75448 v -6.70761 q 0,-0.46509 -0.144694,-0.74414 -0.134359,-0.28939 -0.372071,-0.44442 -0.237712,-0.15503 -0.558107,-0.20671 -0.310059,-0.0517 -0.661459,-0.0517 h -0.06201 v -0.88883 h 3.782721 v 8.94004 q 0,0.49609 0.134359,0.79581 0.144694,0.29973 0.372071,0.46509 0.237712,0.15503 0.558106,0.20671 0.320395,0.0517 0.671795,0.0517 h 0.279053 v 0.88883 h -6.015146 v -0.88883 z m 1.436607,-13.89065 q 0,-0.37207 0.09302,-0.62012 0.09302,-0.24805 0.258382,-0.40308 0.165365,-0.15503 0.382407,-0.21704 0.217041,-0.062 0.475423,-0.062 0.248048,0 0.465089,0.062 0.217041,0.062 0.372071,0.21704 0.165365,0.15503 0.258383,0.40308 0.103353,0.24805 0.103353,0.62012 0,0.37207 -0.103353,0.62012 -0.09302,0.24804 -0.258383,0.40307 -0.15503,0.15503 -0.372071,0.22738 -0.217041,0.062 -0.465089,0.062 -0.258382,0 -0.475423,-0.062 -0.217042,-0.0724 -0.382407,-0.22738 -0.165364,-0.15503 -0.258382,-0.40307 -0.09302,-0.24805 -0.09302,-0.62012 z" />
      <path
         id="path916"
         style="font-style:normal;font-variant:normal;font-weight:normal;font-stretch:normal;font-size:21.1667px;font-family:'Droid Serif';-inkscape-font-specification:'Droid Serif'"
         d="m 74.877036,215.83524 q -1.0542,0 -1.943037,-0.3204 -0.888836,-0.33073 -1.529624,-1.03353 -0.640789,-0.7028 -1.002525,-1.79834 -0.3514,-1.10588 -0.3514,-2.66651 0,-1.69499 0.3514,-2.83187 0.361736,-1.14722 0.992189,-1.83969 0.640789,-0.69246 1.498619,-0.98185 0.868166,-0.28939 1.87069,-0.28939 0.661459,0 1.312584,0.13436 0.661459,0.12403 1.188559,0.39274 0.527101,0.26872 0.857831,0.68213 0.330729,0.40308 0.330729,0.95085 0,0.73381 -0.475424,1.03353 -0.475424,0.29973 -1.415936,0.29973 0,-0.4961 -0.08268,-0.94052 -0.08268,-0.44442 -0.289388,-0.77515 -0.196371,-0.34106 -0.547771,-0.5271 -0.341065,-0.19637 -0.878501,-0.19637 -0.609783,0 -1.105877,0.22738 -0.48576,0.22738 -0.83716,0.78548 -0.3514,0.55811 -0.537436,1.49862 -0.186035,0.94051 -0.186035,2.35645 0,2.2531 0.744142,3.35897 0.754477,1.10588 2.459802,1.10588 0.981854,0 1.71566,-0.41341 0.733807,-0.41341 1.095542,-1.06454 0.15503,0.12403 0.258383,0.33073 0.103353,0.20671 0.103353,0.4961 0,0.36173 -0.227377,0.72347 -0.227376,0.36173 -0.68213,0.65112 -0.444418,0.28939 -1.116213,0.46509 -0.671794,0.18604 -1.570966,0.18604 z" />
      <path
         id="path918"
         style="font-style:normal;font-variant:normal;font-weight:normal;font-stretch:normal;font-size:21.1667px;font-family:'Droid Serif';-inkscape-font-specification:'Droid Serif'"
         d="m 95.847366,209.93378 q 0,2.9869 -1.271242,4.44418 -1.260907,1.45728 -3.700039,1.45728 -1.147218,0 -2.056725,-0.36174 -0.909507,-0.36173 -1.550295,-1.09554 -0.630454,-0.73381 -0.971519,-1.83968 -0.330729,-1.11622 -0.330729,-2.6045 0,-2.96623 1.250571,-4.41317 1.260907,-1.44695 3.720709,-1.44695 1.147219,0 2.056726,0.36174 0.909506,0.3514 1.53996,1.08521 0.640788,0.72347 0.971518,1.82934 0.341065,1.09555 0.341065,2.58383 z m -7.834159,0 q 0,1.17822 0.155029,2.0774 0.15503,0.89917 0.496095,1.50895 0.3514,0.59945 0.899171,0.90951 0.558106,0.31006 1.353925,0.31006 0.795818,0 1.343589,-0.31006 0.547771,-0.31006 0.888836,-0.90951 0.341065,-0.60978 0.485759,-1.50895 0.15503,-0.89918 0.15503,-2.0774 0,-1.17823 -0.15503,-2.06706 -0.155029,-0.88884 -0.496094,-1.47795 -0.341065,-0.59945 -0.899172,-0.89917 -0.547771,-0.29972 -1.343589,-0.29972 -0.795818,0 -1.343589,0.29972 -0.547771,0.29972 -0.888836,0.89917 -0.341065,0.58911 -0.496095,1.47795 -0.155029,0.88883 -0.155029,2.06706 z m 2.077395,-7.41041 q 0.237712,-0.29973 0.48576,-0.69247 0.258382,-0.39274 0.496094,-0.80615 0.248047,-0.42375 0.465089,-0.83716 0.227376,-0.42375 0.392741,-0.77515 h 2.263432 v 0.21704 q -0.196371,0.27906 -0.578777,0.7028 -0.382407,0.41342 -0.847495,0.86817 -0.465089,0.45475 -0.961183,0.88883 -0.48576,0.42375 -0.909507,0.71314 h -0.806154 z" />
      <path
         id="path920"
         style="font-style:normal;font-variant:normal;font-weight:normal;font-stretch:normal;font-size:21.1667px;font-family:'Droid Serif';-inkscape-font-specification:'Droid Serif'"
         d="m 103.08207,214.7397 q 0.36174,0 0.6718,-0.0517 0.32039,-0.0517 0.54777,-0.20671 0.23771,-0.16536 0.37207,-0.46509 0.14469,-0.29972 0.14469,-0.79581 v -11.34817 q 0,-0.46509 -0.14469,-0.74414 -0.13436,-0.28939 -0.37207,-0.44442 -0.23771,-0.15503 -0.55811,-0.19637 -0.31006,-0.0517 -0.66146,-0.0517 h -0.26872 v -0.88884 h 3.99977 v 13.67361 q 0,0.49609 0.13436,0.79581 0.13436,0.29973 0.37207,0.46509 0.23771,0.15503 0.54777,0.20671 0.32039,0.0517 0.68213,0.0517 h 0.26872 v 0.88883 h -6.00482 v -0.88883 z" />
      <path
         id="path922"
         style="font-style:normal;font-variant:normal;font-weight:normal;font-stretch:normal;font-size:21.1667px;font-family:'Droid Serif';-inkscape-font-specification:'Droid Serif'"
         d="m 125.65438,209.93378 q 0,2.9869 -1.27124,4.44418 -1.26091,1.45728 -3.70004,1.45728 -1.14722,0 -2.05673,-0.36174 -0.9095,-0.36173 -1.55029,-1.09554 -0.63045,-0.73381 -0.97152,-1.83968 -0.33073,-1.11622 -0.33073,-2.6045 0,-2.96623 1.25057,-4.41317 1.26091,-1.44695 3.72071,-1.44695 1.14722,0 2.05673,0.36174 0.9095,0.3514 1.53996,1.08521 0.64079,0.72347 0.97152,1.82934 0.34106,1.09555 0.34106,2.58383 z m -7.83416,0 q 0,1.17822 0.15503,2.0774 0.15503,0.89917 0.4961,1.50895 0.3514,0.59945 0.89917,0.90951 0.5581,0.31006 1.35392,0.31006 0.79582,0 1.34359,-0.31006 0.54777,-0.31006 0.88884,-0.90951 0.34106,-0.60978 0.48576,-1.50895 0.15503,-0.89918 0.15503,-2.0774 0,-1.17823 -0.15503,-2.06706 -0.15503,-0.88884 -0.4961,-1.47795 -0.34106,-0.59945 -0.89917,-0.89917 -0.54777,-0.29972 -1.34359,-0.29972 -0.79582,0 -1.34359,0.29972 -0.54777,0.29972 -0.88883,0.89917 -0.34107,0.58911 -0.4961,1.47795 -0.15503,0.88883 -0.15503,2.06706 z" />
      <path
         id="path924"
         style="font-style:normal;font-variant:normal;font-weight:normal;font-stretch:normal;font-size:21.1667px;font-family:'Droid Serif';-inkscape-font-specification:'Droid Serif'"
         d="m 143.47244,204.72479 q 0,0.22737 -0.0724,0.43408 -0.062,0.19637 -0.19637,0.3514 -0.13436,0.14469 -0.3514,0.23771 -0.20671,0.0827 -0.4961,0.0827 0,-0.12402 -0.031,-0.24804 -0.031,-0.12403 -0.11369,-0.22738 -0.0724,-0.11369 -0.20671,-0.1757 -0.13435,-0.0724 -0.3514,-0.0724 -0.26871,0 -0.48576,0.062 -0.21704,0.062 -0.42374,0.19638 0.36173,0.44441 0.58911,1.0542 0.23771,0.59944 0.23771,1.50895 0,0.78548 -0.23771,1.45728 -0.23771,0.66146 -0.71314,1.14722 -0.46508,0.48576 -1.18856,0.76481 -0.71313,0.26872 -1.67432,0.26872 -0.12402,0 -0.27905,0 -0.15503,-0.0103 -0.31006,-0.0103 -0.15503,-0.0103 -0.28939,-0.0207 -0.13435,-0.0207 -0.21704,-0.031 -0.2067,0.10335 -0.39274,0.22737 -0.18603,0.12403 -0.33073,0.27906 -0.13436,0.15502 -0.21704,0.3514 -0.0827,0.19637 -0.0827,0.43408 0,0.25838 0.093,0.41341 0.10335,0.15503 0.27905,0.24805 0.1757,0.0827 0.41341,0.11369 0.24805,0.0207 0.5271,0.0207 h 2.39779 q 0.95085,0 1.61231,0.23771 0.66146,0.23771 1.07487,0.66146 0.42375,0.41341 0.60978,1.00252 0.19637,0.57878 0.19637,1.26091 0,0.90951 -0.34106,1.64331 -0.33073,0.73381 -1.0232,1.24024 -0.69246,0.51676 -1.757,0.79582 -1.0542,0.27905 -2.49081,0.27905 -2.21175,0 -3.30729,-0.81649 -1.09554,-0.81649 -1.09554,-2.27377 0,-0.62011 0.21704,-1.0852 0.21704,-0.46509 0.57877,-0.79582 0.37207,-0.33073 0.8475,-0.53744 0.47542,-0.2067 1.00252,-0.29972 -0.21704,-0.093 -0.42374,-0.24805 -0.20671,-0.15503 -0.37208,-0.37207 -0.16536,-0.21704 -0.26871,-0.49609 -0.10336,-0.27906 -0.10336,-0.62012 0,-0.63045 0.33073,-1.08521 0.33073,-0.46509 1.0542,-0.89917 -0.45475,-0.18603 -0.81648,-0.50643 -0.3514,-0.33073 -0.59945,-0.74414 -0.23771,-0.42375 -0.37207,-0.91984 -0.12403,-0.4961 -0.12403,-1.0232 0,-0.91984 0.24805,-1.64331 0.24805,-0.72347 0.74414,-1.2299 0.4961,-0.50643 1.24024,-0.77515 0.74414,-0.26872 1.74666,-0.26872 0.38241,0 0.75448,0.062 0.37207,0.0517 0.68213,0.15503 0.3204,0.093 0.56844,0.21705 0.25839,0.12402 0.41342,0.25838 0.15503,-0.16537 0.36173,-0.36174 0.20671,-0.2067 0.46509,-0.37207 0.25838,-0.1757 0.55811,-0.28939 0.31006,-0.11369 0.66146,-0.11369 0.32039,0 0.54777,0.093 0.23771,0.0827 0.39274,0.23771 0.15503,0.1447 0.22738,0.3514 0.0827,0.19638 0.0827,0.41342 z m -8.9297,12.7641 q 0,0.46508 0.12402,0.86816 0.12402,0.40308 0.43408,0.69247 0.31006,0.28939 0.83716,0.45475 0.5271,0.16536 1.33326,0.16536 1.13688,0 1.87069,-0.19637 0.74414,-0.18603 1.17822,-0.5271 0.43408,-0.34106 0.60978,-0.81649 0.1757,-0.46508 0.1757,-1.02319 0,-0.48576 -0.14469,-0.80615 -0.13436,-0.31006 -0.41341,-0.4961 -0.26872,-0.1757 -0.6718,-0.24805 -0.40307,-0.0723 -0.93018,-0.0723 h -2.07739 q -0.44442,0 -0.86817,0.0827 -0.41341,0.0724 -0.74414,0.28939 -0.32039,0.21704 -0.51676,0.60978 -0.19637,0.39274 -0.19637,1.0232 z m 1.2299,-9.56016 q 0,1.35393 0.44441,1.98438 0.45476,0.63045 1.47795,0.63045 0.51677,0 0.86817,-0.15503 0.36173,-0.15503 0.58911,-0.47542 0.22738,-0.3204 0.3204,-0.81649 0.10335,-0.50643 0.10335,-1.1989 0,-1.42627 -0.43408,-2.1084 -0.43409,-0.68213 -1.46762,-0.68213 -1.02319,0 -1.46761,0.7028 -0.43408,0.69247 -0.43408,2.11874 z" />
      <path
         id="path926"
         style="font-style:normal;font-variant:normal;font-weight:normal;font-stretch:normal;font-size:21.1667px;font-family:'Droid Serif';-inkscape-font-specification:'Droid Serif'"
         d="m 152.3608,212.55895 q 0,0.99219 0.41342,1.48828 0.42374,0.48576 1.30224,0.48576 0.64079,0 1.15756,-0.20671 0.5271,-0.2067 0.88883,-0.58911 0.37208,-0.38241 0.56845,-0.93018 0.19637,-0.54777 0.19637,-1.21956 v -1.71566 l -1.35393,0.062 q -0.89917,0.0413 -1.50895,0.22738 -0.59945,0.1757 -0.97152,0.50643 -0.37207,0.32039 -0.53744,0.79581 -0.15503,0.47543 -0.15503,1.09555 z m 2.56316,-7.43109 q -0.60978,0 -0.99219,0.1757 -0.37207,0.16537 -0.58911,0.47543 -0.20671,0.31006 -0.27906,0.7338 -0.0723,0.42375 -0.0723,0.91985 -0.8785,0 -1.34359,-0.29973 -0.45476,-0.29972 -0.45476,-1.03353 0,-0.54777 0.29973,-0.93018 0.29972,-0.3824 0.81649,-0.62011 0.5271,-0.24805 1.21956,-0.36174 0.69247,-0.11369 1.47795,-0.11369 0.97152,0 1.69499,0.19637 0.72347,0.18604 1.20923,0.62012 0.48576,0.43408 0.72347,1.13688 0.24805,0.69247 0.24805,1.70533 v 5.48805 q 0,0.44441 0.0724,0.7338 0.0723,0.28939 0.22737,0.46509 0.15503,0.1757 0.40308,0.24805 0.25838,0.0724 0.60978,0.0724 h 0.062 v 0.88883 h -2.86288 l -0.33073,-1.81901 h -0.1757 q -0.33073,0.44442 -0.64079,0.81649 -0.31006,0.37207 -0.68213,0.64079 -0.37207,0.26871 -0.8475,0.41341 -0.46509,0.15503 -1.12654,0.15503 -0.70281,0 -1.31259,-0.20671 -0.59945,-0.19637 -1.04386,-0.60978 -0.43409,-0.42375 -0.68213,-1.0542 -0.24805,-0.64079 -0.24805,-1.50896 0,-1.68465 1.19889,-2.50114 1.1989,-0.81649 3.6277,-0.88884 l 1.757,-0.062 v -1.27124 q 0,-0.56844 -0.062,-1.04387 -0.062,-0.48575 -0.26871,-0.82682 -0.20671,-0.3514 -0.59945,-0.53744 -0.38241,-0.19637 -1.03353,-0.19637 z" />
    </g>
  </g>
</svg>
